<?xml version="1.0" standalone="no"?>
<!DOCTYPE svg PUBLIC "-//W3C//DTD SVG 20010904//EN"
 "http://www.w3.org/TR/2001/REC-SVG-20010904/DTD/svg10.dtd">
<svg version="1.0" xmlns="http://www.w3.org/2000/svg"
 width="558.000000pt" height="558.000000pt" viewBox="0 0 558.000000 558.000000"
 preserveAspectRatio="xMidYMid meet">
<metadata>
Created by potrace 1.11, written by Peter Selinger 2001-2013
</metadata>
<g transform="translate(0.000000,558.000000) scale(0.100000,-0.100000)"
fill="#000000" stroke="none">
<path d="M3390 5454 c-171 -28 -365 -58 -1130 -174 -113 -18 -288 -45 -390
-60 -185 -29 -439 -68 -750 -116 -91 -13 -223 -34 -295 -44 -221 -33 -448 -69
-503 -81 -53 -11 -112 -50 -112 -74 0 -17 65 -132 145 -255 12 -19 65 -103
117 -186 l94 -152 12 -313 c19 -484 41 -960 47 -1005 l6 -41 87 -31 c48 -17
424 -150 835 -296 l749 -265 94 65 94 66 0 -39 c0 -67 -68 -321 -109 -407 -40
-84 -35 -79 -268 -297 -100 -94 -182 -150 -321 -219 -67 -33 -124 -60 -128
-60 -6 0 -36 -13 -224 -95 -524 -230 -691 -325 -834 -475 -69 -72 -82 -101
-101 -227 -8 -55 -23 -139 -34 -188 -29 -133 -91 -451 -91 -469 0 -15 232 -16
2459 -16 l2459 0 11 83 c36 261 41 507 16 664 -48 296 -208 533 -514 763 -82
61 -159 109 -514 321 -140 83 -170 108 -222 188 -23 36 -77 106 -119 155 -84
100 -106 138 -106 187 0 18 -3 30 -6 26 -4 -3 -29 11 -58 32 -57 44 -131 84
-191 104 -27 9 -50 27 -70 56 -29 42 -30 46 -33 177 l-4 134 46 109 c36 85 48
128 54 192 7 71 12 85 32 98 22 15 143 100 215 151 17 12 161 113 322 226
l291 205 7 47 c4 33 17 62 41 91 39 50 38 38 24 274 -31 521 -112 869 -228
980 -46 44 -194 94 -555 187 -138 35 -155 35 -347 4z m426 -89 c142 -36 266
-68 274 -71 10 -4 -5 -13 -40 -25 -48 -17 -651 -169 -1225 -309 -115 -28 -419
-103 -675 -167 -465 -115 -465 -115 -560 -110 -119 7 -694 137 -1000 227 -36
11 -85 24 -110 31 l-45 12 105 19 c100 18 369 59 730 113 91 13 271 40 400 60
129 20 325 49 435 65 110 16 306 46 435 65 360 55 618 93 810 120 96 14 180
27 185 30 6 2 13 4 16 4 3 1 123 -28 265 -64z m487 -163 c9 -10 25 -38 36 -62
21 -49 81 -339 105 -515 16 -110 46 -464 46 -535 l0 -38 -192 -118 c-106 -65
-350 -214 -543 -332 -192 -118 -413 -253 -490 -300 -138 -84 -206 -132 -139
-99 17 9 89 50 160 93 71 42 262 155 424 252 162 96 329 195 370 220 242 146
293 173 301 160 5 -7 9 -16 9 -20 0 -4 -46 -39 -102 -78 -114 -78 -397 -276
-811 -565 -150 -105 -391 -274 -537 -375 -146 -101 -341 -238 -435 -303 -93
-66 -175 -121 -181 -124 -13 -5 -27 94 -49 332 -7 88 -23 252 -34 365 -11 113
-30 309 -41 435 -12 127 -24 247 -27 268 -5 35 -4 37 21 37 56 0 252 -93 375
-179 161 -112 333 -334 387 -498 29 -88 35 -93 85 -67 27 13 30 19 24 47 -27
127 -90 239 -201 357 -119 126 -245 215 -509 360 -179 99 -266 157 -360 241
-166 148 -275 303 -275 390 0 36 2 39 38 48 412 110 2197 554 2467 614 41 9
62 6 78 -11z m-3105 -537 l313 -77 45 -55 c24 -31 43 -57 42 -58 -2 -2 -75 12
-163 30 -175 37 -475 90 -570 100 -52 6 -63 4 -78 -13 -32 -35 -41 -210 -42
-812 0 -483 2 -569 15 -595 17 -35 87 -74 249 -142 230 -96 591 -222 748 -262
102 -26 148 -27 158 -3 27 62 8 870 -31 1307 l-6 70 133 -130 c133 -129 134
-130 141 -185 4 -30 23 -311 42 -625 20 -313 38 -609 41 -657 3 -47 2 -89 -3
-92 -13 -8 -854 292 -1322 470 -36 14 -99 40 -140 58 -74 32 -75 33 -82 77 -8
51 -27 1068 -28 1460 l0 266 113 -27 c61 -15 253 -62 425 -105z m2299 -1541
c-104 -242 -218 -394 -343 -455 -59 -29 -69 -31 -146 -27 -70 3 -93 9 -146 37
l-62 34 108 76 c123 86 285 199 482 337 74 51 136 90 138 85 1 -4 -13 -43 -31
-87z m-17 -519 c22 -59 62 -104 111 -126 27 -13 49 -28 49 -35 0 -7 -28 -43
-63 -81 -178 -194 -547 -509 -714 -608 -149 -89 -330 -61 -483 74 l-55 49 36
53 c21 30 48 77 62 104 39 79 93 262 112 381 18 110 27 130 75 164 25 18 28
18 109 -6 103 -30 284 -34 372 -8 97 29 188 84 278 170 l86 82 7 -92 c4 -50
12 -104 18 -121z m283 -237 c33 -39 38 -52 32 -75 -14 -59 -620 -630 -834
-787 l-63 -46 -59 64 c-32 35 -81 81 -109 102 -52 40 -52 54 3 54 45 0 225 75
307 128 144 92 306 242 475 437 127 147 158 176 184 173 14 -2 40 -23 64 -50z
m-171 -424 c-62 -104 -324 -537 -584 -964 -85 -140 -195 -321 -244 -402 -54
-89 -92 -141 -96 -134 -14 24 -22 786 -9 865 12 76 62 211 85 230 19 16 61
-20 98 -85 16 -30 34 -54 38 -54 4 0 178 146 386 324 209 179 380 323 382 321
2 -1 -23 -47 -56 -101z m-1271 -110 c17 -21 104 -76 180 -115 l62 -31 -52 -30
c-29 -16 -88 -63 -132 -105 -44 -42 -81 -74 -82 -72 -13 16 -100 153 -123 193
l-28 50 69 63 c38 35 74 63 81 63 6 0 18 -7 25 -16z m-43 -641 c-38 -131 -79
-276 -92 -323 -13 -47 -40 -139 -59 -205 -20 -66 -50 -169 -67 -230 -18 -60
-34 -112 -36 -115 -3 -2 -2 34 1 80 13 186 27 301 50 420 13 69 35 187 49 263
23 131 27 142 82 234 32 53 60 91 62 85 6 -18 27 -14 47 8 10 11 21 20 25 20
4 0 -24 -107 -62 -237z"/>
<path d="M3041 2834 c-65 -54 -28 -154 58 -154 32 0 44 6 65 31 35 41 34 83
-3 120 -37 37 -79 38 -120 3z"/>
</g>
</svg>
